<?xml version="1.0" standalone="no"?>
<!DOCTYPE svg PUBLIC "-//W3C//DTD SVG 20010904//EN"
 "http://www.w3.org/TR/2001/REC-SVG-20010904/DTD/svg10.dtd">
<svg version="1.0" xmlns="http://www.w3.org/2000/svg"
 width="20.000000pt" height="20.000000pt" viewBox="0 0 20.000000 20.000000"
 preserveAspectRatio="xMidYMid meet">
<metadata>
Created by potrace 1.10, written by Peter Selinger 2001-2011
</metadata>
<g transform="translate(0.000000,249.000000) scale(0.100000,-0.100000)"
fill="#000000" stroke="none">
<path d="M955 2349 c-167 -38 -322 -152 -414 -304 -40 -65 -86 -190 -96 -259
-4 -26 -13 -50 -21 -53 -23 -9 -34 -65 -34 -180 0 -156 11 -176 103 -185 l28
-3 2 -271 2 -271 -55 -29 c-77 -40 -145 -111 -183 -192 -32 -66 -32 -69 -35
-244 -3 -157 -2 -178 12 -178 14 0 16 20 16 150 0 124 4 160 21 212 36 112
124 205 229 244 46 17 353 36 344 22 -7 -12 21 -60 53 -90 41 -40 94 -58 167
-58 90 0 161 37 194 103 l25 47 107 0 c181 0 290 -50 373 -171 54 -78 67 -138
67 -312 0 -133 2 -148 16 -145 15 3 17 21 15 158 -2 166 -9 207 -48 284 -29
58 -116 147 -161 165 l-32 13 -2 197 c-2 126 -7 194 -13 191 -6 -3 -10 -77
-10 -190 l0 -186 -35 13 c-20 7 -86 12 -157 13 l-123 0 0 144 0 143 59 47 59
46 135 0 135 0 26 31 c19 22 26 42 26 73 0 32 6 48 25 66 24 23 25 27 25 165
0 123 -2 146 -19 166 -10 13 -25 57 -34 97 -60 268 -242 462 -492 527 -65 17
-234 19 -300 4z m345 -53 c92 -32 194 -100 261 -175 60 -67 132 -210 152 -303
l15 -68 -42 0 -43 0 -12 55 c-46 204 -224 385 -418 425 -86 18 -245 8 -316
-19 -171 -67 -313 -232 -350 -406 -11 -53 -12 -55 -44 -55 -37 0 -37 -3 -6
110 45 165 179 332 325 403 104 52 181 68 303 63 75 -3 119 -10 175 -30z m-87
-101 c176 -46 314 -179 375 -363 23 -71 26 -96 31 -316 5 -178 9 -240 19 -244
8 -2 12 11 12 47 0 50 1 51 30 51 29 0 30 -2 30 -44 0 -70 -12 -76 -145 -76
l-113 0 45 88 c46 91 73 193 73 278 l0 51 -69 7 c-145 13 -286 81 -350 168
l-30 41 26 34 c21 27 24 36 14 46 -10 9 -16 7 -29 -13 -8 -14 -52 -61 -96
-106 -64 -64 -100 -90 -172 -126 -50 -25 -126 -54 -168 -64 l-76 -18 0 -40 c0
-70 28 -178 65 -253 37 -75 114 -168 159 -192 l26 -14 0 -149 0 -148 -139 0
c-77 0 -146 -3 -155 -6 -14 -6 -16 37 -16 438 0 497 4 532 72 661 42 78 146
184 218 219 114 57 249 73 363 43z m-103 -354 c0 -20 106 -111 163 -139 70
-35 171 -62 230 -62 l39 0 -7 -52 c-15 -127 -42 -206 -97 -286 -18 -26 -32
-49 -31 -52 1 -3 -25 -4 -56 -2 -55 3 -58 5 -53 28 8 44 -22 64 -96 64 -74 0
-102 -16 -102 -58 0 -53 22 -62 154 -62 l121 0 -30 -25 c-46 -38 -124 -73
-188 -86 -148 -30 -314 49 -411 195 -39 60 -80 174 -90 253 l-7 52 38 7 c112
20 297 118 372 198 34 35 51 44 51 27z m-585 -281 l0 -160 -36 0 c-55 0 -59 9
-59 156 0 148 6 164 64 164 l32 0 -1 -160z m1227 143 c16 -14 18 -33 18 -144
0 -148 -5 -159 -76 -159 l-44 0 0 160 0 160 42 0 c24 0 49 -7 60 -17z m-492
-408 c21 -25 -5 -45 -60 -45 -55 0 -81 20 -60 45 8 9 30 15 60 15 30 0 52 -6
60 -15z m-292 -205 c96 -30 200 -25 292 14 13 5 15 -15 12 -159 l-3 -165 -33
-33 c-79 -80 -220 -74 -301 12 l-30 32 -3 160 c-2 87 -2 159 0 159 2 0 32 -9
66 -20z"/>
<path d="M1316 598 c-9 -12 -16 -33 -16 -45 0 -21 -5 -23 -53 -23 -84 0 -86
-5 -88 -149 -1 -109 1 -126 17 -138 26 -19 412 -19 438 0 16 12 18 29 17 138
-2 145 -4 149 -92 149 -52 0 -57 2 -52 20 3 11 -2 31 -11 45 -15 22 -23 25
-81 25 -55 0 -66 -3 -79 -22z m132 -40 c3 -28 2 -28 -52 -28 -52 0 -56 2 -56
23 0 33 8 38 60 35 41 -3 45 -6 48 -30z m152 -178 l0 -110 -205 0 -205 0 0
110 0 110 205 0 205 0 0 -110z"/>
<path d="M1234 431 c-2 -2 -4 -10 -4 -18 0 -10 20 -13 81 -13 68 0 80 2 77 16
-2 13 -18 16 -76 17 -41 1 -76 0 -78 -2z"/>
<path d="M1433 428 c-10 -18 11 -28 58 -28 42 0 50 3 47 17 -2 13 -14 17 -52
18 -26 0 -50 -3 -53 -7z"/>
<path d="M1230 345 c0 -13 24 -15 155 -15 131 0 155 2 155 15 0 13 -24 15
-155 15 -131 0 -155 -2 -155 -15z"/>
</g>
</svg>
